  0
SECTION
  2
HEADER
  9
$ACADVER
  1
AC1015
  9
$ACADMAINTVER
 70
     6
  9
$DWGCODEPAGE
  3
ANSI_1252
  9
$INSBASE
 10
0.0
 20
0.0
 30
0.0
  9
$EXTMIN
 10
-40.9919822148
 20
-30.7326181571
 30
0.0
  9
$EXTMAX
 10
39.996982307
 20
37.1799056326
 30
0.0
  9
$LIMMIN
 10
0.0
 20
0.0
  9
$LIMMAX
 10
420.0
 20
297.0
  9
$ORTHOMODE
 70
     0
  9
$REGENMODE
 70
     1
  9
$FILLMODE
 70
     1
  9
$QTEXTMODE
 70
     0
  9
$MIRRTEXT
 70
     1
  9
$LTSCALE
 40
1.0
  9
$ATTMODE
 70
     1
  9
$TEXTSIZE
 40
6.35
  9
$TRACEWID
 40
1.0
  9
$TEXTSTYLE
  7
Standard
  9
$CLAYER
  8
0
  9
$CELTYPE
  6
ByLayer
  9
$CECOLOR
 62
   256
  9
$CELTSCALE
 40
1.0
  9
$DISPSILH
 70
     0
  9
$DIMSCALE
 40
1.0
  9
$DIMASZ
 40
5.9944
  9
$DIMEXO
 40
0.0
  9
$DIMDLI
 40
3.75
  9
$DIMRND
 40
0.0
  9
$DIMDLE
 40
0.0
  9
$DIMEXE
 40
0.9906
  9
$DIMTP
 40
0.0
  9
$DIMTM
 40
0.0
  9
$DIMTXT
 40
6.35
  9
$DIMCEN
 40
2.5
  9
$DIMTSZ
 40
0.0
  9
$DIMTOL
 70
     0
  9
$DIMLIM
 70
     0
  9
$DIMTIH
 70
     1
  9
$DIMTOH
 70
     1
  9
$DIMSE1
 70
     0
  9
$DIMSE2
 70
     0
  9
$DIMTAD
 70
     1
  9
$DIMZIN
 70
     0
  9
$DIMBLK
  1

  9
$DIMASO
 70
     1
  9
$DIMSHO
 70
     1
  9
$DIMPOST
  1

  9
$DIMAPOST
  1

  9
$DIMALT
 70
     0
  9
$DIMALTD
 70
     3
  9
$DIMALTF
 40
0.0393700787
  9
$DIMLFAC
 40
1.0
  9
$DIMTOFL
 70
     1
  9
$DIMTVP
 40
0.0
  9
$DIMTIX
 70
     0
  9
$DIMSOXD
 70
     0
  9
$DIMSAH
 70
     0
  9
$DIMBLK1
  1

  9
$DIMBLK2
  1

  9
$DIMSTYLE
  2
ISO-25
  9
$DIMCLRD
 70
     0
  9
$DIMCLRE
 70
     0
  9
$DIMCLRT
 70
     0
  9
$DIMTFAC
 40
1.0
  9
$DIMGAP
 40
1.524
  9
$DIMJUST
 70
     0
  9
$DIMSD1
 70
     0
  9
$DIMSD2
 70
     0
  9
$DIMTOLJ
 70
     0
  9
$DIMTZIN
 70
     0
  9
$DIMALTZ
 70
     0
  9
$DIMALTTZ
 70
     0
  9
$DIMUPT
 70
     0
  9
$DIMDEC
 70
     2
  9
$DIMTDEC
 70
     2
  9
$DIMALTU
 70
     2
  9
$DIMALTTD
 70
     3
  9
$DIMTXSTY
  7
Standard
  9
$DIMAUNIT
 70
     0
  9
$DIMADEC
 70
     2
  9
$DIMALTRND
 40
0.0
  9
$DIMAZIN
 70
     0
  9
$DIMDSEP
 70
    44
  9
$DIMATFIT
 70
     3
  9
$DIMFRAC
 70
     0
  9
$DIMLDRBLK
  1

  9
$DIMLUNIT
 70
     2
  9
$DIMLWD
 70
    -2
  9
$DIMLWE
 70
    -2
  9
$DIMTMOVE
 70
     0
  9
$LUNITS
 70
     2
  9
$LUPREC
 70
     2
  9
$SKETCHINC
 40
1.0
  9
$FILLETRAD
 40
10.0
  9
$AUNITS
 70
     0
  9
$AUPREC
 70
     2
  9
$MENU
  1
.
  9
$ELEVATION
 40
0.0
  9
$PELEVATION
 40
0.0
  9
$THICKNESS
 40
0.0
  9
$LIMCHECK
 70
     0
  9
$CHAMFERA
 40
0.0
  9
$CHAMFERB
 40
0.0
  9
$CHAMFERC
 40
0.0
  9
$CHAMFERD
 40
0.0
  9
$SKPOLY
 70
     0
  9
$TDCREATE
 40
2459917.499757025
  9
$TDUCREATE
 40
2459917.270590359
  9
$TDUPDATE
 40
2459917.499845174
  9
$TDUUPDATE
 40
2459917.270678507
  9
$TDINDWG
 40
0.0000000116
  9
$TDUSRTIMER
 40
0.0000000116
  9
$USRTIMER
 70
     1
  9
$ANGBASE
 50
0.0
  9
$ANGDIR
 70
     0
  9
$PDMODE
 70
     0
  9
$PDSIZE
 40
-1.0
  9
$PLINEWID
 40
0.0
  9
$SPLFRAME
 70
     0
  9
$SPLINETYPE
 70
     6
  9
$SPLINESEGS
 70
     8
  9
$HANDSEED
  5
ED
  9
$SURFTAB1
 70
     6
  9
$SURFTAB2
 70
     6
  9
$SURFTYPE
 70
     6
  9
$SURFU
 70
     6
  9
$SURFV
 70
     6
  9
$UCSBASE
  2

  9
$UCSNAME
  2

  9
$UCSORG
 10
0.0
 20
0.0
 30
0.0
  9
$UCSXDIR
 10
1.0
 20
0.0
 30
0.0
  9
$UCSYDIR
 10
0.0
 20
1.0
 30
0.0
  9
$UCSORTHOREF
  2

  9
$UCSORTHOVIEW
 70
     0
  9
$UCSORGTOP
 10
0.0
 20
0.0
 30
0.0
  9
$UCSORGBOTTOM
 10
0.0
 20
0.0
 30
0.0
  9
$UCSORGLEFT
 10
0.0
 20
0.0
 30
0.0
  9
$UCSORGRIGHT
 10
0.0
 20
0.0
 30
0.0
  9
$UCSORGFRONT
 10
0.0
 20
0.0
 30
0.0
  9
$UCSORGBACK
 10
0.0
 20
0.0
 30
0.0
  9
$PUCSBASE
  2

  9
$PUCSNAME
  2

  9
$PUCSORG
 10
0.0
 20
0.0
 30
0.0
  9
$PUCSXDIR
 10
1.0
 20
0.0
 30
0.0
  9
$PUCSYDIR
 10
0.0
 20
1.0
 30
0.0
  9
$PUCSORTHOREF
  2

  9
$PUCSORTHOVIEW
 70
     0
  9
$PUCSORGTOP
 10
0.0
 20
0.0
 30
0.0
  9
$PUCSORGBOTTOM
 10
0.0
 20
0.0
 30
0.0
  9
$PUCSORGLEFT
 10
0.0
 20
0.0
 30
0.0
  9
$PUCSORGRIGHT
 10
0.0
 20
0.0
 30
0.0
  9
$PUCSORGFRONT
 10
0.0
 20
0.0
 30
0.0
  9
$PUCSORGBACK
 10
0.0
 20
0.0
 30
0.0
  9
$USERI1
 70
     0
  9
$USERI2
 70
     0
  9
$USERI3
 70
     0
  9
$USERI4
 70
     0
  9
$USERI5
 70
     0
  9
$USERR1
 40
0.0
  9
$USERR2
 40
0.0
  9
$USERR3
 40
0.0
  9
$USERR4
 40
0.0
  9
$USERR5
 40
0.0
  9
$WORLDVIEW
 70
     1
  9
$SHADEDGE
 70
     3
  9
$SHADEDIF
 70
    70
  9
$TILEMODE
 70
     1
  9
$MAXACTVP
 70
    64
  9
$PINSBASE
 10
0.0
 20
0.0
 30
0.0
  9
$PLIMCHECK
 70
     0
  9
$PEXTMIN
 10
1.0000000000E+20
 20
1.0000000000E+20
 30
1.0000000000E+20
  9
$PEXTMAX
 10
-1.0000000000E+20
 20
-1.0000000000E+20
 30
-1.0000000000E+20
  9
$PLIMMIN
 10
0.0
 20
0.0
  9
$PLIMMAX
 10
420.0
 20
297.0
  9
$UNITMODE
 70
     0
  9
$VISRETAIN
 70
     1
  9
$PLINEGEN
 70
     0
  9
$PSLTSCALE
 70
     1
  9
$TREEDEPTH
 70
  3020
  9
$CMLSTYLE
  2
Standard
  9
$CMLJUST
 70
     0
  9
$CMLSCALE
 40
20.0
  9
$PROXYGRAPHICS
 70
     1
  9
$MEASUREMENT
 70
     1
  9
$CELWEIGHT
370
    -1
  9
$ENDCAPS
280
     0
  9
$JOINSTYLE
280
     0
  9
$LWDISPLAY
290
     1
  9
$INSUNITS
 70
     4
  9
$HYPERLINKBASE
  1

  9
$STYLESHEET
  1

  9
$XEDIT
290
     1
  9
$CEPSNTYPE
380
     0
  9
$PSTYLEMODE
290
     1
  9
$FINGERPRINTGUID
  2
{135e7e6d-20b2-4756-8ef5-8b65bf5aa6c8}
  9
$VERSIONGUID
  2
{FAEB1C32-E019-11D5-929B-00C0DF256EC4}
  9
$EXTNAMES
290
     1
  9
$PSVPSCALE
 40
0.0
  9
$OLESTARTUP
290
     0
  0
ENDSEC
  0
SECTION
  2
CLASSES
  0
CLASS
  1
ACDBDICTIONARYWDFLT
  2
AcDbDictionaryWithDefault
  3
ObjectDBX Classes
 90
        0
280
     0
281
     0
  0
CLASS
  1
VISUALSTYLE
  2
AcDbVisualStyle
  3
ObjectDBX Classes
 90
     4095
280
     0
281
     0
  0
CLASS
  1
MATERIAL
  2
AcDbMaterial
  3
ObjectDBX Classes
 90
     1153
280
     0
281
     0
  0
CLASS
  1
SCALE
  2
AcDbScale
  3
ObjectDBX Classes
 90
     1153
280
     0
281
     0
  0
CLASS
  1
TABLESTYLE
  2
AcDbTableStyle
  3
ObjectDBX Classes
 90
     4095
280
     0
281
     0
  0
CLASS
  1
MLEADERSTYLE
  2
AcDbMLeaderStyle
  3
ACDB_MLEADERSTYLE_CLASS
 90
     4095
280
     0
281
     0
  0
CLASS
  1
SUN
  2
AcDbSun
  3
SCENEOE
 90
     1153
280
     0
281
     0
  0
CLASS
  1
ACDBPLACEHOLDER
  2
AcDbPlaceHolder
  3
ObjectDBX Classes
 90
        0
280
     0
281
     0
  0
CLASS
  1
LAYOUT
  2
AcDbLayout
  3
ObjectDBX Classes
 90
        0
280
     0
281
     0
  0
ENDSEC
  0
SECTION
  2
TABLES
  0
TABLE
  2
VPORT
  5
8
330
0
100
AcDbSymbolTable
 70
     1
  0
VPORT
  5
29
330
8
100
AcDbSymbolTableRecord
100
AcDbViewportTableRecord
  2
*Active
 70
     0
 10
0.0
 20
0.0
 11
1.0
 21
1.0
 12
-0.4974999539
 22
3.2236437377
 13
0.0
 23
0.0
 14
10.0
 24
10.0
 15
10.0
 25
10.0
 16
0.0
 26
0.0
 36
1.0
 17
0.0
 27
0.0
 37
0.0
 40
69.2707742655
 41
1.192548296
 42
50.0
 43
0.0
 44
0.0
 50
0.0
 51
0.0
 71
     0
 72
   100
 73
     1
 74
     3
 75
     0
 76
     0
 77
     0
 78
     0
281
     0
 65
     1
110
0.0
120
0.0
130
0.0
111
1.0
121
0.0
131
0.0
112
0.0
122
1.0
132
0.0
 79
     0
146
0.0
  0
ENDTAB
  0
TABLE
  2
LTYPE
  5
5
330
0
100
AcDbSymbolTable
 70
     6
  0
LTYPE
  5
14
330
5
100
AcDbSymbolTableRecord
100
AcDbLinetypeTableRecord
  2
ByBlock
 70
     0
  3

 72
    65
 73
     0
 40
0.0
  0
LTYPE
  5
15
330
5
100
AcDbSymbolTableRecord
100
AcDbLinetypeTableRecord
  2
ByLayer
 70
     0
  3

 72
    65
 73
     0
 40
0.0
  0
LTYPE
  5
16
330
5
100
AcDbSymbolTableRecord
100
AcDbLinetypeTableRecord
  2
Continuous
 70
     0
  3
Solid line
 72
    65
 73
     0
 40
0.0
  0
LTYPE
  5
6E
330
5
100
AcDbSymbolTableRecord
100
AcDbLinetypeTableRecord
  2
HIDDEN
 70
     0
  3
Hidden __ __ __ __ __ __ __ __ __ __ __ __ __ __
 72
    65
 73
     2
 40
1.905
 49
1.27
 74
     0
 49
-0.635
 74
     0
  0
LTYPE
  5
6F
330
5
100
AcDbSymbolTableRecord
100
AcDbLinetypeTableRecord
  2
PHANTOM
 70
     0
  3
Phantom ______  __  __  ______  __  __  ______
 72
    65
 73
     6
 40
12.7
 49
6.35
 74
     0
 49
-1.27
 74
     0
 49
1.27
 74
     0
 49
-1.27
 74
     0
 49
1.27
 74
     0
 49
-1.27
 74
     0
  0
LTYPE
  5
70
330
5
100
AcDbSymbolTableRecord
100
AcDbLinetypeTableRecord
  2
CENTER
 70
     0
  3
Center ____ _ ____ _ ____ _ ____ _ ____ _ ____
 72
    65
 73
     4
 40
10.16
 49
6.35
 74
     0
 49
-1.27
 74
     0
 49
1.27
 74
     0
 49
-1.27
 74
     0
  0
LTYPE
  5
71
330
5
100
AcDbSymbolTableRecord
100
AcDbLinetypeTableRecord
  2
CENTERX2
 70
     0
  3
Center (2x) ________  __  ________  __  _____
 72
    65
 73
     4
 40
20.32
 49
12.7
 74
     0
 49
-2.54
 74
     0
 49
2.54
 74
     0
 49
-2.54
 74
     0
  0
LTYPE
  5
72
330
5
100
AcDbSymbolTableRecord
100
AcDbLinetypeTableRecord
  2
DOT2
 70
     0
  3
Dot (.5x) ........................................
 72
    65
 73
     2
 40
0.635
 49
0.0
 74
     0
 49
-0.635
 74
     0
  0
ENDTAB
  0
TABLE
  2
LAYER
  5
2
330
0
100
AcDbSymbolTable
 70
     1
  0
LAYER
  5
10
330
2
100
AcDbSymbolTableRecord
100
AcDbLayerTableRecord
  2
0
 70
     0
 62
     7
  6
Continuous
370
    -3
390
F
  0
ENDTAB
  0
TABLE
  2
STYLE
  5
3
330
0
100
AcDbSymbolTable
 70
     2
  0
STYLE
  5
11
330
3
100
AcDbSymbolTableRecord
100
AcDbTextStyleTableRecord
  2
Standard
 70
     0
 40
0.0
 41
1.0
 50
0.0
 71
     0
 42
6.35
  3
txt
  4

  0
STYLE
  5
E9
330
3
100
AcDbSymbolTableRecord
100
AcDbTextStyleTableRecord
  2
SLDTEXTSTYLE0
 70
     0
 40
0.0
 41
0.7
 50
0.0
 71
     0
 42
6.35
  3
TXT
  4

  0
ENDTAB
  0
TABLE
  2
VIEW
  5
6
330
0
100
AcDbSymbolTable
 70
     0
  0
ENDTAB
  0
TABLE
  2
UCS
  5
7
330
0
100
AcDbSymbolTable
 70
     0
  0
ENDTAB
  0
TABLE
  2
APPID
  5
9
330
0
100
AcDbSymbolTable
 70
     1
  0
APPID
  5
12
330
9
100
AcDbSymbolTableRecord
100
AcDbRegAppTableRecord
  2
ACAD
 70
     0
  0
ENDTAB
  0
TABLE
  2
DIMSTYLE
  5
A
330
0
100
AcDbSymbolTable
 70
     1
100
AcDbDimStyleTable
  0
DIMSTYLE
105
27
330
A
100
AcDbSymbolTableRecord
100
AcDbDimStyleTableRecord
  2
ISO-25
 70
     0
 41
2.5
 42
0.625
 43
3.75
 44
1.25
 73
     0
 74
     0
 77
     1
 78
     8
140
2.5
141
2.5
143
0.0393700787
147
0.625
171
     3
172
     1
178
     0
271
     2
272
     2
274
     3
278
    44
283
     0
284
     8
340
11
  0
ENDTAB
  0
TABLE
  2
BLOCK_RECORD
  5
1
330
0
100
AcDbSymbolTable
 70
     1
  0
BLOCK_RECORD
  5
1F
330
1
100
AcDbSymbolTableRecord
100
AcDbBlockTableRecord
  2
*Model_Space
340
22
  0
BLOCK_RECORD
  5
1B
330
1
100
AcDbSymbolTableRecord
100
AcDbBlockTableRecord
  2
*Paper_Space
340
1E
  0
BLOCK_RECORD
  5
23
330
1
100
AcDbSymbolTableRecord
100
AcDbBlockTableRecord
  2
*Paper_Space0
340
26
  0
ENDTAB
  0
ENDSEC
  0
SECTION
  2
BLOCKS
  0
BLOCK
  5
20
330
1F
100
AcDbEntity
  8
0
100
AcDbBlockBegin
  2
*Model_Space
 70
     0
 10
0.0
 20
0.0
 30
0.0
  3
*Model_Space
  1

  0
ENDBLK
  5
21
330
1F
100
AcDbEntity
  8
0
100
AcDbBlockEnd
  0
BLOCK
  5
1C
330
1B
100
AcDbEntity
 67
     1
  8
0
100
AcDbBlockBegin
  2
*Paper_Space
 70
     0
 10
0.0
 20
0.0
 30
0.0
  3
*Paper_Space
  1

  0
ENDBLK
  5
1D
330
1B
100
AcDbEntity
 67
     1
  8
0
100
AcDbBlockEnd
  0
BLOCK
  5
24
330
23
100
AcDbEntity
  8
0
100
AcDbBlockBegin
  2
*Paper_Space0
 70
     0
 10
0.0
 20
0.0
 30
0.0
  3
*Paper_Space0
  1

  0
ENDBLK
  5
25
330
23
100
AcDbEntity
  8
0
100
AcDbBlockEnd
  0
ENDSEC
  0
SECTION
  2
ENTITIES
  0
LWPOLYLINE
  5
7D
330
1F
100
AcDbEntity
  8
0
  6
Continuous
 62
     7
370
    25
100
AcDbPolyline
 90
       19
 70
   128
 43
0.0
 10
5.5920599857
 20
-2.7182524461
 10
5.2877569724
 20
-2.7498707307
 10
4.9624504107
 20
-2.8203201886
 10
4.6261587821
 20
-2.9274311846
 10
4.2892388758
 20
-3.0679050162
 10
3.96206683
 20
-3.2374155042
 10
3.6547185777
 20
-3.4307422261
 10
3.3766595374
 20
-3.6419312898
 10
3.1364531066
 20
-3.8644786957
 10
2.941496934
 20
-4.0915306409
 10
2.7977950941
 20
-4.3160945958
 10
2.7097731792
 20
-4.5312546538
 10
2.6801420043
 20
-4.7303845204
 10
2.7098141223
 20
-4.9073515837
 10
2.7978757194
 20
-5.0567057807
 10
2.9416147585
 20
-5.1738474432
 10
3.1366045016
 20
-5.2551689539
 10
3.3768398404
 20
-5.2981658503
 10
3.6549222359
 20
-5.301513955
  0
LWPOLYLINE
  5
7F
330
1F
100
AcDbEntity
  8
0
  6
Continuous
 62
     7
370
    25
100
AcDbPolyline
 90
       19
 70
   128
 43
0.0
 10
27.6475370749
 20
-3.9468370274
 10
27.9549024104
 20
-3.9104332287
 10
28.2820847411
 20
-3.8353986561
 10
28.6190078175
 20
-3.7240441529
 10
28.9552954035
 20
-3.5797991088
 10
29.2805908346
 20
-3.4071058455
 10
29.5848759721
 20
-3.2112828054
 10
29.8587797321
 20
-2.9983607599
 10
30.0938666877
 20
-2.7748970794
 10
30.2828968548
 20
-2.5477737853
 10
30.4200486625
 20
-2.3239856044
 10
30.50109824
 20
-2.110424552
 10
30.5235494998
 20
-1.9136676777
 10
30.4867110092
 20
-1.7397745124
 10
30.391717285
 20
-1.5941004521
 10
30.2414938534
 20
-1.4811318276
 10
30.0406671526
 20
-1.404347739
 10
29.7954220519
 20
-1.3661129096
 10
29.5133113762
 20
-1.3676048591
  0
LWPOLYLINE
  5
81
330
1F
100
AcDbEntity
  8
0
  6
Continuous
 62
     7
370
    25
100
AcDbPolyline
 90
       19
 70
   128
 43
0.0
 10
-8.0267767357
 20
-21.1595449241
 10
-8.3341420712
 20
-21.1959487228
 10
-8.6613244019
 20
-21.2709832954
 10
-8.9982474782
 20
-21.3823377987
 10
-9.3345350643
 20
-21.5265828427
 10
-9.6598304954
 20
-21.699276106
 10
-9.9641156328
 20
-21.8950991461
 10
-10.2380193929
 20
-22.1080211916
 10
-10.4731063485
 20
-22.3314848721
 10
-10.6621365156
 20
-22.5586081662
 10
-10.7992883233
 20
-22.7823963471
 10
-10.8803379008
 20
-22.9959573995
 10
-10.9027891605
 20
-23.1927142738
 10
-10.8659506699
 20
-23.3666074391
 10
-10.7709569458
 20
-23.5122814994
 10
-10.6207335142
 20
-23.6252501239
 10
-10.4199068134
 20
-23.7020342125
 10
-10.1746617127
 20
-23.7402690419
 10
-9.892551037
 20
-23.7387770924
  0
LWPOLYLINE
  5
83
330
1F
100
AcDbEntity
  8
0
  6
Continuous
 62
     7
370
    25
100
AcDbPolyline
 90
       19
 70
   128
 43
0.0
 10
14.0287003535
 20
-22.3881295054
 10
14.3330033668
 20
-22.3565112208
 10
14.6583099285
 20
-22.2860617629
 10
14.9946015571
 20
-22.178950767
 10
15.3315214634
 20
-22.0384769354
 10
15.6586935092
 20
-21.8689664473
 10
15.9660417615
 20
-21.6756397254
 10
16.2441008018
 20
-21.4644506617
 10
16.4843072326
 20
-21.2419032558
 10
16.6792634052
 20
-21.0148513106
 10
16.8229652452
 20
-20.7902873557
 10
16.9109871601
 20
-20.5751272977
 10
16.9406183349
 20
-20.3759974311
 10
16.910946217
 20
-20.1990303678
 10
16.8228846199
 20
-20.0496761708
 10
16.6791455808
 20
-19.9325345083
 10
16.4841558376
 20
-19.8512129976
 10
16.2439204988
 20
-19.8082161012
 10
15.9658381033
 20
-19.8048679965
  0
LWPOLYLINE
  5
92
330
1F
100
AcDbEntity
  8
0
  6
Continuous
 62
     7
370
    25
100
AcDbPolyline
 90
       85
 70
   128
 43
0.0
 10
-26.1028106775
 20
17.0511115747
 10
-26.4643732332
 20
16.5192190229
 10
-26.7992584497
 20
15.9416358587
 10
-27.105593513
 20
15.3215921615
 10
-27.3816652732
 20
14.6625554672
 10
-27.6259298251
 20
13.9682113762
 10
-27.8370211422
 20
13.2424429426
 10
-28.0137587161
 20
12.4893089576
 10
-28.1551541588
 20
11.713021252
 10
-28.2604167295
 20
10.9179211416
 10
-28.3289577572
 20
10.1084551488
 10
-28.3603939328
 20
9.2891501356
 10
-28.3545494523
 20
8.4645879881
 10
-28.3114570005
 20
7.6393799923
 10
-28.2313575678
 20
6.8181410461
 10
-28.1146991028
 20
6.0054638506
 10
-27.9621340069
 20
5.2058932266
 10
-27.774515486
 20
4.4239006971
 10
-27.552892779
 20
3.6638594817
 10
-27.29850529
 20
2.9300200392
 10
-27.012775657
 20
2.2264862974
 10
-26.697301796
 20
1.5571927023
 10
-26.3538479648
 20
0.9258822152
 10
-25.9843348965
 20
0.3360853804
 10
-25.5908290582
 20
-0.2088994189
 10
-25.175531094
 20
-0.7060244066
 10
-24.7407635187
 20
-1.1525094581
 10
-24.2889577289
 20
-1.5458576481
 10
-23.8226404058
 20
-1.8838692137
 10
-23.3444193851
 20
-2.1646538573
 10
-22.8569690728
 20
-2.3866413171
 10
-22.3630154885
 20
-2.5485901494
 10
-21.8653210213
 20
-2.6495946704
 10
-21.3666689804
 20
-2.6890900221
 10
-20.8698480304
 20
-2.6668553302
 10
-20.3776365954
 20
-2.5830149403
 10
-19.8927873215
 20
-2.4380377219
 10
-19.4180116825
 20
-2.2327344462
 10
-18.9559648165
 20
-1.9682532526
 10
-18.5092306767
 20
-1.6460732272
 10
-18.0803075819
 20
-1.2679961313
 10
-17.6715942439
 20
-0.8361363254
 10
-17.2853763535
 20
-0.3529089448
 10
-16.9238137979
 20
0.1789836071
 10
-16.5889285814
 20
0.7565667713
 10
-16.282593518
 20
1.3766104685
 10
-16.0065217578
 20
2.0356471628
 10
-15.7622572059
 20
2.7299912537
 10
-15.5511658889
 20
3.4557596874
 10
-15.3744283149
 20
4.2088936724
 10
-15.2330328722
 20
4.9851813779
 10
-15.1277703015
 20
5.7802814883
 10
-15.0592292738
 20
6.5897474812
 10
-15.0277930983
 20
7.4090524943
 10
-15.0336375787
 20
8.2336146418
 10
-15.0767300306
 20
9.0588226376
 10
-15.1568294632
 20
9.8800615839
 10
-15.2734879282
 20
10.6927387793
 10
-15.4260530241
 20
11.4923094034
 10
-15.613671545
 20
12.2743019328
 10
-15.835294252
 20
13.0343431482
 10
-16.089681741
 20
13.7681825907
 10
-16.375411374
 20
14.4717163326
 10
-16.6908852351
 20
15.1410099277
 10
-17.0343390663
 20
15.7723204148
 10
-17.4038521345
 20
16.3621172495
 10
-17.7973579729
 20
16.9071020488
 10
-18.212655937
 20
17.4042270365
 10
-18.6474235123
 20
17.8507120881
 10
-19.0992293021
 20
18.244060278
 10
-19.5655466252
 20
18.5820718437
 10
-20.0437676459
 20
18.8628564872
 10
-20.5312179583
 20
19.0848439471
 10
-21.0251715425
 20
19.2467927793
 10
-21.5228660097
 20
19.3477973004
 10
-22.0215180506
 20
19.387292652
 10
-22.5183390007
 20
19.3650579602
 10
-23.0105504357
 20
19.2812175703
 10
-23.4953997095
 20
19.1362403518
 10
-23.9701753485
 20
18.9309370762
 10
-24.4322222146
 20
18.6664558826
 10
-24.8789563543
 20
18.3442758572
 10
-25.3078794491
 20
17.9661987613
 10
-25.7165927871
 20
17.5343389554
 10
-26.1028106775
 20
17.0511115747
  0
LWPOLYLINE
  5
93
330
1F
100
AcDbEntity
  8
0
  6
Continuous
 62
     7
370
    25
100
AcDbPolyline
 90
       37
 70
   128
 43
0.0
 10
-9.2898030147
 20
7.2447976942
 10
-9.4349287487
 20
7.0074030078
 10
-9.551399365
 20
6.7293651169
 10
-9.6356759629
 20
6.4191320621
 10
-9.6851978405
 20
6.086130118
 10
-9.6984603008
 20
5.7404773799
 10
-9.6750603704
 20
5.3926763315
 10
-9.6157090446
 20
5.0532947317
 10
-9.5222096832
 20
4.7326445185
 10
-9.3974032172
 20
4.4404684865
 10
-9.2450818277
 20
4.1856442566
 10
-9.0698737231
 20
3.9759145339
 10
-8.8771025131
 20
3.8176518501
 10
-8.6726254532
 20
3.7156649367
 10
-8.4626554756
 20
3.6730526145
 10
-8.2535724116
 20
3.6911096372
 10
-8.0517291445
 20
3.7692873514
 10
-7.8632585797
 20
3.9052103668
 10
-7.6938873
 20
4.0947487314
 10
-7.548761566
 20
4.3321434178
 10
-7.4322909497
 20
4.6101813087
 10
-7.3480143518
 20
4.9204143635
 10
-7.2984924742
 20
5.2534163076
 10
-7.2852300139
 20
5.5990690457
 10
-7.3086299443
 20
5.9468700941
 10
-7.3679812701
 20
6.2862516939
 10
-7.4614806315
 20
6.6069019071
 10
-7.5862870975
 20
6.8990779391
 10
-7.738608487
 20
7.153902169
 10
-7.9138165916
 20
7.3636318917
 10
-8.1065878016
 20
7.5218945755
 10
-8.3110648615
 20
7.6238814889
 10
-8.5210348391
 20
7.6664938111
 10
-8.7301179031
 20
7.6484367884
 10
-8.9319611702
 20
7.5702590742
 10
-9.120431735
 20
7.4343360588
 10
-9.2898030147
 20
7.2447976942
  0
LWPOLYLINE
  5
94
330
1F
100
AcDbEntity
  8
0
  6
Continuous
 62
     7
370
    25
100
AcDbPolyline
 90
       37
 70
   128
 43
0.0
 10
-23.3259529418
 20
-11.8094255632
 10
-23.4710786758
 20
-12.0468202497
 10
-23.5875492921
 20
-12.3248581406
 10
-23.67182589
 20
-12.6350911953
 10
-23.7213477676
 20
-12.9680931394
 10
-23.7346102278
 20
-13.3137458775
 10
-23.7112102975
 20
-13.6615469259
 10
-23.6518589717
 20
-14.0009285257
 10
-23.5583596103
 20
-14.3215787389
 10
-23.4335531442
 20
-14.6137547709
 10
-23.2812317548
 20
-14.8685790009
 10
-23.1060236502
 20
-15.0783087235
 10
-22.9132524401
 20
-15.2365714073
 10
-22.7087753803
 20
-15.3385583207
 10
-22.4988054027
 20
-15.381170643
 10
-22.2897223387
 20
-15.3631136202
 10
-22.0878790716
 20
-15.284935906
 10
-21.8994085068
 20
-15.1490128906
 10
-21.7300372271
 20
-14.959474526
 10
-21.5849114931
 20
-14.7220798396
 10
-21.4684408768
 20
-14.4440419487
 10
-21.3841642789
 20
-14.133808894
 10
-21.3346424013
 20
-13.8008069498
 10
-21.321379941
 20
-13.4551542117
 10
-21.3447798714
 20
-13.1073531634
 10
-21.4041311972
 20
-12.7679715635
 10
-21.4976305585
 20
-12.4473213503
 10
-21.6224370246
 20
-12.1551453183
 10
-21.7747584141
 20
-11.9003210884
 10
-21.9499665187
 20
-11.6905913658
 10
-22.1427377287
 20
-11.532328682
 10
-22.3472147886
 20
-11.4303417685
 10
-22.5571847662
 20
-11.3877294463
 10
-22.7662678302
 20
-11.405786469
 10
-22.9681110973
 20
-11.4839641832
 10
-23.1565816621
 20
-11.6198871986
 10
-23.3259529418
 20
-11.8094255632
  0
LWPOLYLINE
  5
95
330
1F
100
AcDbEntity
  8
0
  6
Continuous
 62
     7
370
    25
100
AcDbPolyline
 90
       37
 70
   128
 43
0.0
 10
-21.658149804
 20
31.657677156
 10
-21.803275538
 20
31.4202824695
 10
-21.9197461543
 20
31.1422445786
 10
-22.0040227521
 20
30.8320115239
 10
-22.0535446298
 20
30.4990095797
 10
-22.06680709
 20
30.1533568417
 10
-22.0434071597
 20
29.8055557933
 10
-21.9840558338
 20
29.4661741935
 10
-21.8905564725
 20
29.1455239803
 10
-21.7657500064
 20
28.8533479483
 10
-21.6134286169
 20
28.5985237183
 10
-21.4382205124
 20
28.3887939957
 10
-21.2454493023
 20
28.2305313119
 10
-21.0409722425
 20
28.1285443985
 10
-20.8310022648
 20
28.0859320762
 10
-20.6219192009
 20
28.103989099
 10
-20.4200759337
 20
28.1821668132
 10
-20.2316053689
 20
28.3180898286
 10
-20.0622340892
 20
28.5076281932
 10
-19.9171083552
 20
28.7450228796
 10
-19.8006377389
 20
29.0230607705
 10
-19.7163611411
 20
29.3332938252
 10
-19.6668392634
 20
29.6662957694
 10
-19.6535768032
 20
30.0119485074
 10
-19.6769767335
 20
30.3597495558
 10
-19.7363280594
 20
30.6991311557
 10
-19.8298274207
 20
31.0197813689
 10
-19.9546338868
 20
31.3119574009
 10
-20.1069552763
 20
31.5667816308
 10
-20.2821633809
 20
31.7765113534
 10
-20.4749345909
 20
31.9347740372
 10
-20.6794116507
 20
32.0367609506
 10
-20.8893816284
 20
32.0793732729
 10
-21.0984646923
 20
32.0613162502
 10
-21.3003079595
 20
31.983138536
 10
-21.4887785243
 20
31.8472155206
 10
-21.658149804
 20
31.657677156
  0
LWPOLYLINE
  5
96
330
1F
100
AcDbEntity
  8
0
  6
Continuous
 62
     7
370
    25
100
AcDbPolyline
 90
       37
 70
   128
 43
0.0
 10
-35.7503347205
 20
12.7140568324
 10
-35.8954604545
 20
12.476662146
 10
-36.0119310708
 20
12.1986242551
 10
-36.0962076686
 20
11.8883912003
 10
-36.1457295463
 20
11.5553892562
 10
-36.1589920065
 20
11.2097365181
 10
-36.1355920762
 20
10.8619354698
 10
-36.0762407503
 20
10.5225538699
 10
-35.982741389
 20
10.2019036567
 10
-35.8579349229
 20
9.9097276247
 10
-35.7056135334
 20
9.6549033948
 10
-35.5304054288
 20
9.4451736721
 10
-35.3376342188
 20
9.2869109883
 10
-35.133157159
 20
9.1849240749
 10
-34.9231871813
 20
9.1423117527
 10
-34.7141041174
 20
9.1603687754
 10
-34.5122608502
 20
9.2385464896
 10
-34.3237902854
 20
9.374469505
 10
-34.1544190057
 20
9.5640078696
 10
-34.0092932717
 20
9.8014025561
 10
-33.8928226554
 20
10.0794404469
 10
-33.8085460575
 20
10.3896735017
 10
-33.7590241799
 20
10.7226754458
 10
-33.7457617197
 20
11.0683281839
 10
-33.76916165
 20
11.4161292323
 10
-33.8285129758
 20
11.7555108321
 10
-33.9220123372
 20
12.0761610453
 10
-34.0468188033
 20
12.3683370773
 10
-34.1991401928
 20
12.6231613072
 10
-34.3743482973
 20
12.8328910299
 10
-34.5671195074
 20
12.9911537137
 10
-34.7715965672
 20
13.0931406271
 10
-34.9815665449
 20
13.1357529493
 10
-35.1906496088
 20
13.1176959266
 10
-35.3924928759
 20
13.0395182124
 10
-35.5809634407
 20
12.903595197
 10
-35.7503347205
 20
12.7140568324
  0
LWPOLYLINE
  5
A6
330
1F
100
AcDbEntity
  8
0
  6
Continuous
 62
     7
370
    25
100
AcDbPolyline
 90
       40
 70
   128
 43
0.0
 10
-21.8730615503
 20
-2.6484957082
 10
-21.4875374142
 20
-2.5280808943
 10
-21.0127617752
 20
-2.3227776187
 10
-20.5507149092
 20
-2.0582964251
 10
-20.1039807694
 20
-1.7361163997
 10
-19.6750576746
 20
-1.3580393038
 10
-19.2663443366
 20
-0.9261794979
 10
-18.8801264462
 20
-0.4429521173
 10
-18.5185638906
 20
0.0889404346
 10
-18.1836786741
 20
0.6665235988
 10
-17.8773436107
 20
1.286567296
 10
-17.6012718505
 20
1.9456039903
 10
-17.3570072986
 20
2.6399480812
 10
-17.1459159816
 20
3.3657165149
 10
-16.9691784076
 20
4.1188504999
 10
-16.8277829649
 20
4.8951382055
 10
-16.7225203942
 20
5.6902383159
 10
-16.6539793665
 20
6.4997043087
 10
-16.622543191
 20
7.3190093219
 10
-16.6283876714
 20
8.1435714694
 10
-16.6714801233
 20
8.9687794652
 10
-16.7515795559
 20
9.7900184114
 10
-16.8682380209
 20
10.6026956069
 10
-17.0208031168
 20
11.4022662309
 10
-17.2084216377
 20
12.1842587604
 10
-17.4300443447
 20
12.9442999757
 10
-17.6844318337
 20
13.6781394183
 10
-17.9701614667
 20
14.3816731601
 10
-18.2856353278
 20
15.0509667552
 10
-18.629089159
 20
15.6822772423
 10
-18.9986022272
 20
16.2720740771
 10
-19.3921080656
 20
16.8170588763
 10
-19.8074060297
 20
17.3141838641
 10
-20.242173605
 20
17.7606689156
 10
-20.6939793948
 20
18.1540171056
 10
-21.1602967179
 20
18.4920286712
 10
-21.6385177386
 20
18.7728133148
 10
-22.125968051
 20
18.9948007746
 10
-22.6199216352
 20
19.1567496069
 10
-23.1098755734
 20
19.2566551657
  0
LINE
  5
B3
330
1F
100
AcDbEntity
  8
0
  6
Continuous
 62
     7
370
    25
100
AcDbLine
 10
-21.84215926
 20
-29.0675505033
 30
0.0
 11
-22.6401171173
 21
-27.4925260219
 31
0.0
  0
LINE
  5
B4
330
1F
100
AcDbEntity
  8
0
  6
Continuous
 62
     7
370
    25
100
AcDbLine
 10
-20.2474091673
 20
-28.9775073308
 30
0.0
 11
-21.84215926
 21
-29.0675505033
 31
0.0
  0
LINE
  5
B5
330
1F
100
AcDbEntity
  8
0
  6
Continuous
 62
     7
370
    25
100
AcDbLine
 10
-22.6401171173
 20
-27.4925260219
 30
0.0
 11
-20.2474091673
 21
-28.9775073308
 31
0.0
  0
LINE
  5
B6
330
1F
100
AcDbEntity
  8
0
  6
Continuous
 62
     7
370
    25
100
AcDbLine
 10
-40.9919822148
 20
5.4929449152
 30
0.0
 11
-22.6389514953
 21
-30.7326181571
 31
0.0
  0
LINE
  5
B7
330
1F
100
AcDbEntity
  8
0
  6
Continuous
 62
     7
370
    25
100
AcDbLine
 10
-39.3972321221
 20
5.5829880877
 30
0.0
 11
-40.9919822148
 21
5.4929449152
 31
0.0
  0
LINE
  5
B8
330
1F
100
AcDbEntity
  8
0
  6
Continuous
 62
     7
370
    25
100
AcDbLine
 10
-29.8217378337
 20
-13.3173056892
 30
0.0
 11
-39.3972321221
 21
5.5829880877
 31
0.0
  0
LINE
  5
B9
330
1F
100
AcDbEntity
  8
0
  6
Continuous
 62
     7
370
    25
100
AcDbLine
 10
-11.4762836574
 20
-28.4822698822
 30
0.0
 11
-29.8217378337
 21
-13.3173056892
 31
0.0
  0
LINE
  5
BA
330
1F
100
AcDbEntity
  8
0
  6
Continuous
 62
     7
370
    25
100
AcDbLine
 10
14.8370928721
 20
-26.9965575365
 30
0.0
 11
-11.4762836574
 21
-28.4822698822
 31
0.0
  0
LINE
  5
BB
330
1F
100
AcDbEntity
  8
0
  6
Continuous
 62
     7
370
    25
100
AcDbLine
 10
15.6350507295
 20
-28.571582018
 30
0.0
 11
14.8370928721
 21
-26.9965575365
 31
0.0
  0
LINE
  5
BC
330
1F
100
AcDbEntity
  8
0
  6
Continuous
 62
     7
370
    25
100
AcDbLine
 10
-22.6389514953
 20
-30.7326181571
 30
0.0
 11
15.6350507295
 21
-28.571582018
 31
0.0
  0
LINE
  5
BD
330
1F
100
AcDbEntity
  8
0
  6
Continuous
 62
     7
370
    25
100
AcDbLine
 10
3.6549222359
 20
-5.301513955
 30
0.0
 11
27.6475370749
 21
-3.9468370274
 31
0.0
  0
LINE
  5
BE
330
1F
100
AcDbEntity
  8
0
  6
Continuous
 62
     7
370
    25
100
AcDbLine
 10
29.5133113762
 20
-1.3676048591
 30
0.0
 11
5.5920599857
 21
-2.7182524461
 31
0.0
  0
LINE
  5
BF
330
1F
100
AcDbEntity
  8
0
  6
Continuous
 62
     7
370
    25
100
AcDbLine
 10
-9.892551037
 20
-23.7387770924
 30
0.0
 11
14.0287003535
 21
-22.3881295054
 31
0.0
  0
LINE
  5
C0
330
1F
100
AcDbEntity
  8
0
  6
Continuous
 62
     7
370
    25
100
AcDbLine
 10
15.9658381033
 20
-19.8048679965
 30
0.0
 11
-8.0267767357
 21
-21.1595449241
 31
0.0
  0
LINE
  5
C1
330
1F
100
AcDbEntity
  8
0
  6
Continuous
 62
     7
370
    25
100
AcDbLine
 10
-10.5707255976
 20
-27.2529651559
 30
0.0
 11
-11.4762836574
 21
-28.4822698822
 31
0.0
  0
LINE
  5
C2
330
1F
100
AcDbEntity
  8
0
  6
Continuous
 62
     7
370
    25
100
AcDbLine
 10
-21.84215926
 20
-29.0675505033
 30
0.0
 11
-21.296297817
 21
-28.3265377714
 31
0.0
  0
LINE
  5
C3
330
1F
100
AcDbEntity
  8
0
  6
Continuous
 62
     7
370
    25
100
AcDbLine
 10
-16.7454585806
 20
-22.1487249617
 30
0.0
 11
0.4370956185
 21
1.1767756594
 31
0.0
  0
LINE
  5
C4
330
1F
100
AcDbEntity
  8
0
  6
Continuous
 62
     7
370
    25
100
AcDbLine
 10
10.2571097781
 20
1.0210435486
 30
0.0
 11
1.4859842682
 21
0.5258061001
 31
0.0
  0
LINE
  5
C5
330
1F
100
AcDbEntity
  8
0
  6
Continuous
 62
     7
370
    25
100
AcDbLine
 10
10.2571097781
 20
1.0210435486
 30
0.0
 11
11.1626678379
 21
2.2503482749
 31
0.0
  0
LINE
  5
C6
330
1F
100
AcDbEntity
  8
0
  6
Continuous
 62
     7
370
    25
100
AcDbLine
 10
37.4760443674
 20
3.7360606206
 30
0.0
 11
11.1626678379
 21
2.2503482749
 31
0.0
  0
LINE
  5
C7
330
1F
100
AcDbEntity
  8
0
  6
Continuous
 62
     7
370
    25
100
AcDbLine
 10
39.1990244497
 20
0.887906736
 30
0.0
 11
37.4760443674
 21
3.7360606206
 31
0.0
  0
LINE
  5
C8
330
1F
100
AcDbEntity
  8
0
  6
Continuous
 62
     7
370
    25
100
AcDbLine
 10
21.0878632534
 20
-23.6981877897
 30
0.0
 11
39.1990244497
 21
0.887906736
 31
0.0
  0
LINE
  5
C9
330
1F
100
AcDbEntity
  8
0
  6
Continuous
 62
     7
370
    25
100
AcDbLine
 10
14.8370928721
 20
-26.9965575365
 30
0.0
 11
21.0878632534
 21
-23.6981877897
 31
0.0
  0
LINE
  5
CA
330
1F
100
AcDbEntity
  8
0
  6
Continuous
 62
     7
370
    25
100
AcDbLine
 10
21.0878632534
 20
-23.6981877897
 30
0.0
 11
21.8858211108
 21
-25.2732122711
 31
0.0
  0
LINE
  5
CB
330
1F
100
AcDbEntity
  8
0
  6
Continuous
 62
     7
370
    25
100
AcDbLine
 10
21.8858211108
 20
-25.2732122711
 30
0.0
 11
15.6350507295
 21
-28.571582018
 31
0.0
  0
LINE
  5
CC
330
1F
100
AcDbEntity
  8
0
  6
Continuous
 62
     7
370
    25
100
AcDbLine
 10
39.996982307
 20
-0.6871177454
 30
0.0
 11
39.1990244497
 21
0.887906736
 31
0.0
  0
LINE
  5
CD
330
1F
100
AcDbEntity
  8
0
  6
Continuous
 62
     7
370
    25
100
AcDbLine
 10
21.8858211108
 20
-25.2732122711
 30
0.0
 11
39.996982307
 21
-0.6871177454
 31
0.0
  0
LINE
  5
CE
330
1F
100
AcDbEntity
  8
0
  6
Continuous
 62
     7
370
    25
100
AcDbLine
 10
-16.7582806268
 20
36.3156062448
 30
0.0
 11
-21.0170704198
 21
37.1799056326
 31
0.0
  0
LINE
  5
CF
330
1F
100
AcDbEntity
  8
0
  6
Continuous
 62
     7
370
    25
100
AcDbLine
 10
-7.1827863384
 20
17.4153124679
 30
0.0
 11
-16.7582806268
 21
36.3156062448
 31
0.0
  0
LINE
  5
D0
330
1F
100
AcDbEntity
  8
0
  6
Continuous
 62
     7
370
    25
100
AcDbLine
 10
-8.0883443982
 20
16.1860077416
 30
0.0
 11
-7.1827863384
 21
17.4153124679
 31
0.0
  0
LINE
  5
D1
330
1F
100
AcDbEntity
  8
0
  6
Continuous
 62
     7
370
    25
100
AcDbLine
 10
-0.9067236819
 20
2.010787409
 30
0.0
 11
-8.0883443982
 21
16.1860077416
 31
0.0
  0
LINE
  5
D2
330
1F
100
AcDbEntity
  8
0
  6
Continuous
 62
     7
370
    25
100
AcDbLine
 10
-28.9161797739
 20
-12.0880009629
 30
0.0
 11
-29.8217378337
 21
-13.3173056892
 31
0.0
  0
LINE
  5
D3
330
1F
100
AcDbEntity
  8
0
  6
Continuous
 62
     7
370
    25
100
AcDbLine
 10
-39.128231616
 20
12.5938111069
 30
0.0
 11
-39.3972321221
 21
5.5829880877
 31
0.0
  0
LINE
  5
D4
330
1F
100
AcDbEntity
  8
0
  6
Continuous
 62
     7
370
    25
100
AcDbLine
 10
-39.128231616
 20
12.5938111069
 30
0.0
 11
-21.0170704198
 21
37.1799056326
 31
0.0
  0
LINE
  5
D5
330
1F
100
AcDbEntity
  8
0
  6
Continuous
 62
     7
370
    25
100
AcDbLine
 10
-40.9919822148
 20
5.4929449152
 30
0.0
 11
-40.7229817087
 21
12.5037679344
 31
0.0
  0
LINE
  5
D6
330
1F
100
AcDbEntity
  8
0
  6
Continuous
 62
     7
370
    25
100
AcDbLine
 10
-40.7229817087
 20
12.5037679344
 30
0.0
 11
-39.128231616
 21
12.5938111069
 31
0.0
  0
LINE
  5
D7
330
1F
100
AcDbEntity
  8
0
  6
Continuous
 62
     7
370
    25
100
AcDbLine
 10
-21.0170704198
 20
37.1799056326
 30
0.0
 11
-22.6118205125
 21
37.0898624601
 31
0.0
  0
LINE
  5
D8
330
1F
100
AcDbEntity
  8
0
  6
Continuous
 62
     7
370
    25
100
AcDbLine
 10
-40.7229817087
 20
12.5037679344
 30
0.0
 11
-22.6118205125
 21
37.0898624601
 31
0.0
  0
LINE
  5
D9
330
1F
100
AcDbEntity
  8
0
  6
Continuous
 62
     7
370
    25
100
AcDbLine
 10
-10.5707255976
 20
-27.2529651559
 30
0.0
 11
-28.9161797739
 21
-12.0880009629
 31
0.0
  0
LINE
  5
DA
330
1F
100
AcDbEntity
  8
0
  6
Continuous
 62
     7
370
    25
100
AcDbLine
 10
-7.2288188783
 20
-22.7345694055
 30
0.0
 11
-8.0267767357
 21
-21.1595449241
 31
0.0
  0
LINE
  5
DB
330
1F
100
AcDbEntity
  8
0
  6
Continuous
 62
     7
370
    25
100
AcDbLine
 10
16.3128450861
 20
-21.4053541772
 30
0.0
 11
-7.2288188783
 21
-22.7345694055
 31
0.0
  0
LINE
  5
DC
330
1F
100
AcDbEntity
  8
0
  6
Continuous
 62
     7
370
    25
100
AcDbLine
 10
30.1784525785
 20
-2.6804732863
 30
0.0
 11
29.5133113762
 21
-1.3676048591
 31
0.0
  0
LINE
  5
DD
330
1F
100
AcDbEntity
  8
0
  6
Continuous
 62
     7
370
    25
100
AcDbLine
 10
6.3900178431
 20
-4.2932769275
 30
0.0
 11
5.5920599857
 21
-2.7182524461
 31
0.0
  0
LINE
  5
DE
330
1F
100
AcDbEntity
  8
0
  6
Continuous
 62
     7
370
    25
100
AcDbLine
 10
29.895876238
 20
-2.9660833621
 30
0.0
 11
6.3900178431
 21
-4.2932769275
 31
0.0
  0
LINE
  5
DF
330
1F
100
AcDbEntity
  8
0
  6
Continuous
 62
     7
370
    25
100
AcDbLine
 10
-8.0883443982
 20
16.1860077416
 30
0.0
 11
10.2571097781
 21
1.0210435486
 31
0.0
  0
LINE
  5
E0
330
1F
100
AcDbEntity
  8
0
  6
Continuous
 62
     7
370
    25
100
AcDbLine
 10
-7.1827863384
 20
17.4153124679
 30
0.0
 11
11.1626678379
 21
2.2503482749
 31
0.0
  0
LINE
  5
E1
330
1F
100
AcDbEntity
  8
0
  6
Continuous
 62
     7
370
    25
100
AcDbLine
 10
1.4859842682
 20
0.5258061001
 30
0.0
 11
-0.9067236819
 21
2.010787409
 31
0.0
  0
LINE
  5
E2
330
1F
100
AcDbEntity
  8
0
  6
Continuous
 62
     8
370
    25
100
AcDbLine
 10
16.6181758852
 20
-21.0924647875
 30
0.0
 11
15.9658381033
 21
-19.8048679965
 31
0.0
  0
ARC
  5
E3
330
1F
100
AcDbEntity
  8
0
  6
Continuous
 62
     7
370
    25
100
AcDbCircle
 10
-38.2076302143
 20
10.9552334346
 30
0.0
 40
2.880843772638173
100
AcDbArc
 50
331.940447349
 51
34.5227870738
  0
ARC
  5
E4
330
1F
100
AcDbEntity
  8
0
  6
Continuous
 62
     7
370
    25
100
AcDbCircle
 10
-25.7832484357
 20
-13.568248961
 30
0.0
 40
2.880843772638278
100
AcDbArc
 50
331.940447349
 51
34.5227870738
  0
ARC
  5
E5
330
1F
100
AcDbEntity
  8
0
  6
Continuous
 62
     7
370
    25
100
AcDbCircle
 10
-6.8204445731
 20
-26.7382427588
 30
0.0
 40
4.024446532525245
100
AcDbArc
 50
95.8240221793
 51
131.3108415044
  0
ARC
  5
E6
330
1F
100
AcDbEntity
  8
0
  6
Continuous
 62
     7
370
    25
100
AcDbCircle
 10
-24.1154452978
 20
29.8988537582
 30
0.0
 40
2.880843772638277
100
AcDbArc
 50
331.940447349
 51
34.5227870738
  0
ARC
  5
E7
330
1F
100
AcDbEntity
  8
0
  6
Continuous
 62
     7
370
    25
100
AcDbCircle
 10
-11.7470985086
 20
5.4859742964
 30
0.0
 40
2.880843772638285
100
AcDbArc
 50
331.940447349
 51
34.5227870738
  0
ARC
  5
E8
330
1F
100
AcDbEntity
  8
0
  6
Continuous
 62
     7
370
    25
100
AcDbCircle
 10
6.7505960242
 20
-8.2770918375
 30
0.0
 40
4.000099731422313
100
AcDbArc
 50
95.171793427
 51
131.3887251863
  0
MTEXT
  5
EA
330
1F
100
AcDbEntity
  8
0
  6
Continuous
 62
     7
100
AcDbMText
 10
-40.9919822148
 20
-31.7521845488
 30
0.0
 40
4.83362
 41
0.0
 71
     1
 72
     1
  1
SOLIDWORKS Educational Product.
  7
SLDTEXTSTYLE0
 73
     1
 44
1.0
  0
MTEXT
  5
EB
330
1F
100
AcDbEntity
  8
0
  6
Continuous
 62
     7
100
AcDbMText
 10
-40.9919822148
 20
-39.0026145488
 30
0.0
 40
4.83362
 41
0.0
 71
     1
 72
     1
  1
For Instructional Use Only.
  7
SLDTEXTSTYLE0
 73
     1
 44
1.0
  0
ENDSEC
  0
SECTION
  2
OBJECTS
  0
DICTIONARY
  5
C
330
0
100
AcDbDictionary
281
     1
  3
ACAD_GROUP
350
D
  3
ACAD_LAYOUT
350
1A
  3
ACAD_MLINESTYLE
350
17
  3
ACAD_PLOTSETTINGS
350
19
  3
ACAD_PLOTSTYLENAME
350
E
  3
ACAD_SCALELIST
350
47
  3
DWGPROPS
350
EC
  0
DICTIONARY
  5
D
102
{ACAD_REACTORS
330
C
102
}
330
C
100
AcDbDictionary
281
     1
  0
DICTIONARY
  5
1A
102
{ACAD_REACTORS
330
C
102
}
330
C
100
AcDbDictionary
281
     1
  3
Layout1
350
1E
  3
Layout2
350
26
  3
Model
350
22
  0
DICTIONARY
  5
17
102
{ACAD_REACTORS
330
C
102
}
330
C
100
AcDbDictionary
281
     1
  3
Standard
350
18
  0
DICTIONARY
  5
19
102
{ACAD_REACTORS
330
C
102
}
330
C
100
AcDbDictionary
281
     1
  0
ACDBDICTIONARYWDFLT
  5
E
102
{ACAD_REACTORS
330
C
102
}
330
C
100
AcDbDictionary
281
     1
  3
Normal
350
F
100
AcDbDictionaryWithDefault
340
F
  0
DICTIONARY
  5
47
102
{ACAD_REACTORS
330
C
102
}
330
C
100
AcDbDictionary
281
     1
  3
A0
350
48
  3
A1
350
49
  3
A2
350
4A
  3
A3
350
4B
  3
A4
350
4C
  3
A5
350
4D
  3
A6
350
4E
  3
A7
350
4F
  3
A8
350
50
  3
A9
350
51
  3
B0
350
52
  3
B1
350
53
  3
B2
350
54
  3
B3
350
55
  3
B4
350
56
  3
B5
350
57
  3
B6
350
58
  3
B7
350
59
  3
B8
350
5A
  3
B9
350
5B
  3
C0
350
5C
  3
C1
350
5D
  3
C2
350
5E
  3
C3
350
5F
  3
C4
350
60
  3
C5
350
61
  3
C6
350
62
  3
C7
350
63
  3
C8
350
64
  3
C9
350
65
  3
D0
350
66
  3
D1
350
67
  3
D2
350
68
  0
XRECORD
  5
EC
102
{ACAD_REACTORS
330
C
102
}
330
C
100
AcDbXrecord
280
     1
  1
DWGPROPS COOKIE
  2

  3

  4

  6

  7

  8
Alqama
  9

300
=
301
=
302
=
303
=
304
=
305
=
306
=
307
=
308
=
309
=
 40
0.0
 41
2459917.270590359
 42
2459917.270678507
  1

 90
        0
  0
LAYOUT
  5
1E
102
{ACAD_REACTORS
330
1A
102
}
330
1A
100
AcDbPlotSettings
  1

  2
none_device
  4

  6

 40
0.0
 41
0.0
 42
0.0
 43
0.0
 44
0.0
 45
0.0
 46
0.0
 47
0.0
 48
0.0
 49
0.0
140
0.0
141
0.0
142
1.0
143
1.0
 70
   688
 72
     1
 73
     0
 74
     5
  7

 75
    16
147
1.0
148
0.0
149
0.0
100
AcDbLayout
  1
Layout1
 70
     1
 71
     1
 10
0.0
 20
0.0
 11
420.0
 21
297.0
 12
0.0
 22
0.0
 32
0.0
 14
1.0000000000E+20
 24
1.0000000000E+20
 34
1.0000000000E+20
 15
-1.0000000000E+20
 25
-1.0000000000E+20
 35
-1.0000000000E+20
146
0.0
 13
0.0
 23
0.0
 33
0.0
 16
1.0
 26
0.0
 36
0.0
 17
0.0
 27
1.0
 37
0.0
 76
     0
330
1B
  0
LAYOUT
  5
26
102
{ACAD_REACTORS
330
1A
102
}
330
1A
100
AcDbPlotSettings
  1

  2
none_device
  4

  6

 40
0.0
 41
0.0
 42
0.0
 43
0.0
 44
0.0
 45
0.0
 46
0.0
 47
0.0
 48
0.0
 49
0.0
140
0.0
141
0.0
142
1.0
143
1.0
 70
   688
 72
     1
 73
     0
 74
     5
  7

 75
    16
147
1.0
148
0.0
149
0.0
100
AcDbLayout
  1
Layout2
 70
     1
 71
     2
 10
0.0
 20
0.0
 11
0.0
 21
0.0
 12
0.0
 22
0.0
 32
0.0
 14
0.0
 24
0.0
 34
0.0
 15
0.0
 25
0.0
 35
0.0
146
0.0
 13
0.0
 23
0.0
 33
0.0
 16
1.0
 26
0.0
 36
0.0
 17
0.0
 27
1.0
 37
0.0
 76
     0
330
23
  0
LAYOUT
  5
22
102
{ACAD_REACTORS
330
1A
102
}
330
1A
100
AcDbPlotSettings
  1

  2
none_device
  4
ANSI_A_(11.00_x_8.50_Inches)
  6

 40
6.35
 41
19.05
 42
6.35000508
 43
19.05000254
 44
279.4
 45
215.9
 46
134.915778434
 47
78.7542288823
 48
0.0
 49
0.0
140
0.0
141
0.0
142
0.1239093989
143
1.0
 70
  1696
 72
     0
 73
     0
 74
     0
  7

 75
     0
147
0.0179189148
148
-1300.4909072572
149
0.0
100
AcDbLayout
  1
Model
 70
     1
 71
     0
 10
0.0
 20
0.0
 11
420.0
 21
297.0
 12
0.0
 22
0.0
 32
0.0
 14
-40.9919822148
 24
-30.7326181571
 34
0.0
 15
39.996982307
 25
37.1799056326
 35
0.0
146
0.0
 13
0.0
 23
0.0
 33
0.0
 16
1.0
 26
0.0
 36
0.0
 17
0.0
 27
1.0
 37
0.0
 76
     0
330
1F
331
29
  0
MLINESTYLE
  5
18
102
{ACAD_REACTORS
330
17
102
}
330
17
100
AcDbMlineStyle
  2
Standard
 70
     0
  3

 62
   256
 51
90.0
 52
90.0
 71
     2
 49
0.5
 62
   256
  6
BYLAYER
 49
-0.5
 62
   256
  6
BYLAYER
  0
ACDBPLACEHOLDER
  5
F
102
{ACAD_REACTORS
330
E
102
}
330
E
  0
SCALE
  5
48
102
{ACAD_REACTORS
330
47
102
}
330
47
100
AcDbScale
 70
     0
300
1:1
140
1.0
141
1.0
290
     1
  0
SCALE
  5
49
102
{ACAD_REACTORS
330
47
102
}
330
47
100
AcDbScale
 70
     0
300
1:2
140
1.0
141
2.0
290
     0
  0
SCALE
  5
4A
102
{ACAD_REACTORS
330
47
102
}
330
47
100
AcDbScale
 70
     0
300
1:4
140
1.0
141
4.0
290
     0
  0
SCALE
  5
4B
102
{ACAD_REACTORS
330
47
102
}
330
47
100
AcDbScale
 70
     0
300
1:5
140
1.0
141
5.0
290
     0
  0
SCALE
  5
4C
102
{ACAD_REACTORS
330
47
102
}
330
47
100
AcDbScale
 70
     0
300
1:8
140
1.0
141
8.0
290
     0
  0
SCALE
  5
4D
102
{ACAD_REACTORS
330
47
102
}
330
47
100
AcDbScale
 70
     0
300
1:10
140
1.0
141
10.0
290
     0
  0
SCALE
  5
4E
102
{ACAD_REACTORS
330
47
102
}
330
47
100
AcDbScale
 70
     0
300
1:16
140
1.0
141
16.0
290
     0
  0
SCALE
  5
4F
102
{ACAD_REACTORS
330
47
102
}
330
47
100
AcDbScale
 70
     0
300
1:20
140
1.0
141
20.0
290
     0
  0
SCALE
  5
50
102
{ACAD_REACTORS
330
47
102
}
330
47
100
AcDbScale
 70
     0
300
1:30
140
1.0
141
30.0
290
     0
  0
SCALE
  5
51
102
{ACAD_REACTORS
330
47
102
}
330
47
100
AcDbScale
 70
     0
300
1:40
140
1.0
141
40.0
290
     0
  0
SCALE
  5
52
102
{ACAD_REACTORS
330
47
102
}
330
47
100
AcDbScale
 70
     0
300
1:50
140
1.0
141
50.0
290
     0
  0
SCALE
  5
53
102
{ACAD_REACTORS
330
47
102
}
330
47
100
AcDbScale
 70
     0
300
1:100
140
1.0
141
100.0
290
     0
  0
SCALE
  5
54
102
{ACAD_REACTORS
330
47
102
}
330
47
100
AcDbScale
 70
     0
300
2:1
140
2.0
141
1.0
290
     0
  0
SCALE
  5
55
102
{ACAD_REACTORS
330
47
102
}
330
47
100
AcDbScale
 70
     0
300
4:1
140
4.0
141
1.0
290
     0
  0
SCALE
  5
56
102
{ACAD_REACTORS
330
47
102
}
330
47
100
AcDbScale
 70
     0
300
8:1
140
8.0
141
1.0
290
     0
  0
SCALE
  5
57
102
{ACAD_REACTORS
330
47
102
}
330
47
100
AcDbScale
 70
     0
300
10:1
140
10.0
141
1.0
290
     0
  0
SCALE
  5
58
102
{ACAD_REACTORS
330
47
102
}
330
47
100
AcDbScale
 70
     0
300
100:1
140
100.0
141
1.0
290
     0
  0
SCALE
  5
59
102
{ACAD_REACTORS
330
47
102
}
330
47
100
AcDbScale
 70
     0
300
1/128" = 1'-0"
140
0.0078125
141
12.0
290
     0
  0
SCALE
  5
5A
102
{ACAD_REACTORS
330
47
102
}
330
47
100
AcDbScale
 70
     0
300
1/64" = 1'-0"
140
0.015625
141
12.0
290
     0
  0
SCALE
  5
5B
102
{ACAD_REACTORS
330
47
102
}
330
47
100
AcDbScale
 70
     0
300
1/32" = 1'-0"
140
0.03125
141
12.0
290
     0
  0
SCALE
  5
5C
102
{ACAD_REACTORS
330
47
102
}
330
47
100
AcDbScale
 70
     0
300
1/16" = 1'-0"
140
0.0625
141
12.0
290
     0
  0
SCALE
  5
5D
102
{ACAD_REACTORS
330
47
102
}
330
47
100
AcDbScale
 70
     0
300
3/32" = 1'-0"
140
0.09375
141
12.0
290
     0
  0
SCALE
  5
5E
102
{ACAD_REACTORS
330
47
102
}
330
47
100
AcDbScale
 70
     0
300
1/8" = 1'-0"
140
0.125
141
12.0
290
     0
  0
SCALE
  5
5F
102
{ACAD_REACTORS
330
47
102
}
330
47
100
AcDbScale
 70
     0
300
3/16" = 1'-0"
140
0.1875
141
12.0
290
     0
  0
SCALE
  5
60
102
{ACAD_REACTORS
330
47
102
}
330
47
100
AcDbScale
 70
     0
300
1/4" = 1'-0"
140
0.25
141
12.0
290
     0
  0
SCALE
  5
61
102
{ACAD_REACTORS
330
47
102
}
330
47
100
AcDbScale
 70
     0
300
3/8" = 1'-0"
140
0.375
141
12.0
290
     0
  0
SCALE
  5
62
102
{ACAD_REACTORS
330
47
102
}
330
47
100
AcDbScale
 70
     0
300
1/2" = 1'-0"
140
0.5
141
12.0
290
     0
  0
SCALE
  5
63
102
{ACAD_REACTORS
330
47
102
}
330
47
100
AcDbScale
 70
     0
300
3/4" = 1'-0"
140
0.75
141
12.0
290
     0
  0
SCALE
  5
64
102
{ACAD_REACTORS
330
47
102
}
330
47
100
AcDbScale
 70
     0
300
1" = 1'-0"
140
1.0
141
12.0
290
     0
  0
SCALE
  5
65
102
{ACAD_REACTORS
330
47
102
}
330
47
100
AcDbScale
 70
     0
300
1-1/2" = 1'-0"
140
1.5
141
12.0
290
     0
  0
SCALE
  5
66
102
{ACAD_REACTORS
330
47
102
}
330
47
100
AcDbScale
 70
     0
300
3" = 1'-0"
140
3.0
141
12.0
290
     0
  0
SCALE
  5
67
102
{ACAD_REACTORS
330
47
102
}
330
47
100
AcDbScale
 70
     0
300
6" = 1'-0"
140
6.0
141
12.0
290
     0
  0
SCALE
  5
68
102
{ACAD_REACTORS
330
47
102
}
330
47
100
AcDbScale
 70
     0
300
1'-0" = 1'-0"
140
12.0
141
12.0
290
     0
  0
ENDSEC
  0
EOF
