<?xml version="1.0" encoding="UTF-8"?>
<!DOCTYPE svg PUBLIC "-//W3C//DTD SVG 1.1//EN" "http://www.w3.org/Graphics/SVG/1.1/DTD/svg11.dtd">
<!-- Creator: CorelDRAW 2018 (64-Bit) -->
<svg xmlns="http://www.w3.org/2000/svg" xmlns:xlink="http://www.w3.org/1999/xlink" xml:space="preserve" width="492px" height="100px" version="1.1" style="shape-rendering:geometricPrecision; text-rendering:geometricPrecision; image-rendering:optimizeQuality; fill-rule:evenodd; clip-rule:evenodd" viewBox="0 0 492.393 100.11"><style xmlns="" lang="en" type="text/css" id="dark-mode-custom-style"/><style xmlns="" lang="en" type="text/css" id="dark-mode-native-style"/>
 <defs>
  <style type="text/css">
   <![CDATA[
    .fil3 {fill:#373435}
    .fil0 {fill:#E13236}
    .fil2 {fill:#FEFEFE;fill-rule:nonzero}
    .fil1 {fill:#E23236;fill-rule:nonzero}
   ]]>
  </style>
 </defs>
 <g id="Layer_x0020_1">
  
  <g id="_2745005801248">
   <path class="fil0" d="M86.641 62.988c0.187,-7.359 0.098,-15.026 0,-22.57l0 -26.773c0,-2.234 -0.589,-4.342 -1.622,-6.176 -3.643,-9.674 -16.183,-7.183 -59.364,-7.176 -30.746,0.004 -25.279,-0.042 -25.279,62.41 0,37.536 -2.947,31.724 54.84,31.724 10.186,0 27.006,2.987 30.436,-8.458 0.637,-1.506 0.989,-3.156 0.989,-4.886l0 -18.095z"/>
   <path class="fil1" d="M129.729 72.625c-16.518,0 -22.223,-11.098 -22.223,-21.814l0 -48.044 13.051 0 0 47.52c0,8.791 8.123,11.618 12.524,11.618l22.209 0 0 -59.138 13.169 0 0 72.452c0,7.479 -1.936,18.85 -18.464,18.85l-40.554 0 0 -10.742 36.443 0c5.527,0 9.406,-1.918 9.406,-6.948l0 -3.754 -25.561 0z"/>
   <path class="fil1" d="M225.407 2.767c6.833,0 19.388,3.742 19.388,20.663l0 49.195 -43.526 0c-14.461,0 -23.247,-7.235 -23.247,-21.045 0,-13.937 8.786,-21.304 23.247,-21.304l30.337 0 0 -2.075c0,-9.816 -3.61,-14.574 -11.108,-14.574l-39.759 0 0 -10.86 44.668 0zm-20.411 38.227l0 0c-8.643,0 -12.378,3.349 -12.378,10.586 0,6.975 3.735,10.325 12.783,10.325l26.205 0 0 -20.911 -26.61 0z"/>
   <path class="fil1" d="M317.481 26.156l0 46.469 -13.169 0 0 -43.497c0,-7.249 -2.478,-15.501 -14.734,-15.501l-20.258 0 0 58.998 -13.039 0 0 -69.858 36.558 0c15.721,0 24.642,7.614 24.642,23.389z"/>
   <path class="fil1" d="M368.04 2.767l0 10.86 -20.782 0 0 41.447c0,4.004 2.71,6.831 6.699,6.831l11.291 0 0 10.72 -18.279 0c-6.048,0 -12.904,-5.413 -12.904,-14.578l0 -44.42 -13.677 0 0 -10.86 47.652 0z"/>
   <path class="fil1" d="M400.114 2.767c7.886,0 20.662,4.016 20.662,20.143l0 10.337 -13.153 0 0 -8.12c0,-6.742 -2.218,-11.5 -11.499,-11.5l-9.544 0 0 58.998 -13.064 0 0 -69.858 26.598 0z"/>
   <path class="fil1" d="M472.08 2.767c6.83,0 19.293,3.723 19.36,20.527l0 49.331 -43.505 0c-14.471,0 -23.258,-7.235 -23.258,-21.045 0,-13.937 8.787,-21.304 23.258,-21.304l30.323 0 0 -2.075c0,-9.816 -3.608,-14.574 -11.081,-14.574l-39.788 0 0 -10.86 44.691 0zm-20.415 38.227l0 0c-8.629,0 -12.389,3.349 -12.389,10.586 0,6.975 3.76,10.325 12.778,10.325l26.204 0 0 -20.911 -26.593 0z"/>
   <path class="fil2" d="M71.431 40.459l0 -8.604c0.033,-4.005 -0.578,-7.381 -1.798,-10.106 -1.199,-2.672 -3.11,-4.732 -5.685,-6.115 -2.569,-1.395 -5.88,-2.11 -9.975,-2.11l-20.599 0c-3.95,0 -7.294,0.636 -10.084,1.826 -2.777,1.262 -4.895,3.178 -6.376,5.736 -1.498,2.569 -2.228,5.866 -2.228,9.961l0 32.344c-0.034,2.047 0.109,3.938 0.364,5.646 0.3,1.733 0.846,3.3 1.675,4.826 0.855,1.498 2.074,2.942 3.69,4.274 1.415,1.187 2.849,2.034 4.309,2.569 1.467,0.575 3.006,0.901 4.589,1.082 1.618,0.156 3.332,0.208 5.124,0.195l52.868 0 0 -11.756 -50.658 0c-0.952,0.034 -1.838,0 -2.608,0 -0.762,-0.082 -1.531,-0.186 -2.281,-0.46 -0.718,-0.209 -1.416,-0.625 -2.216,-1.16 -0.893,-0.718 -1.551,-1.458 -2.003,-2.227 -0.442,-0.77 -0.676,-1.619 -0.795,-2.53 -0.137,-0.888 -0.221,-1.917 -0.189,-3.064l0 -2.009 44.876 -18.318zm-11.982 -6.559l0 0 -33.018 13.548 0 -13.548c0,-2.215 0.476,-3.975 1.462,-5.24 0.932,-1.306 2.216,-2.177 3.851,-2.726 1.598,-0.507 3.429,-0.808 5.451,-0.756l12.973 0c1.72,-0.052 3.304,0.21 4.7,0.678 1.381,0.496 2.489,1.29 3.331,2.426 0.808,1.106 1.212,2.609 1.25,4.523l0 1.095z"/>
   <path class="fil3" d="M483.497 85.329l0.049 0 0.466 9.578 2.152 0 6.229 -12.369 -2.079 0 -4.58 9.719 -0.045 0 -0.343 -9.719 -2.319 0 -4.458 9.719 -0.047 0 -0.295 -9.719 -2.27 0 0.936 12.369 2.152 0 4.452 -9.578zm-19.001 3.382l0 0c0.352,-1.656 1.622,-4.731 4.603,-4.731 2.98,0 2.94,3.075 2.587,4.731 -0.352,1.655 -1.622,4.729 -4.601,4.729 -2.98,0 -2.942,-3.074 -2.589,-4.729zm-2.151 0l0 0c-0.681,3.192 0.407,6.526 4.356,6.526 3.948,0 6.457,-3.334 7.138,-6.526 0.679,-3.193 -0.407,-6.528 -4.358,-6.528 -3.948,0 -6.457,3.335 -7.136,6.528zm-4.59 -0.993l0 0c0.383,-1.798 1.936,-3.311 3.875,-3.311l0.781 0 0.458 -2.153c-0.156,-0.047 -0.27,-0.071 -0.528,-0.071 -1.562,0 -2.857,0.97 -3.991,2.413l-0.048 0 0.438 -2.058 -1.963 0 -2.634 12.369 2.08 0 1.532 -7.189zm-7.875 0l0 0c0.384,-1.798 1.934,-3.311 3.874,-3.311l0.781 0 0.458 -2.153c-0.154,-0.047 -0.268,-0.071 -0.529,-0.071 -1.56,0 -2.854,0.97 -3.989,2.413l-0.049 0 0.439 -2.058 -1.962 0 -2.634 12.369 2.08 0 1.531 -7.189zm-14.281 0.993l0 0c0.352,-1.656 1.621,-4.731 4.601,-4.731 2.98,0 2.939,3.075 2.587,4.731 -0.353,1.655 -1.622,4.729 -4.603,4.729 -2.978,0 -2.939,-3.074 -2.585,-4.729zm-2.153 0l0 0c-0.681,3.192 0.407,6.526 4.356,6.526 3.95,0 6.456,-3.334 7.138,-6.526 0.68,-3.193 -0.409,-6.528 -4.357,-6.528 -3.95,0 -6.457,3.335 -7.137,6.528zm-20.31 6.196l0 0 2.08 0 1.436 -6.74c0.715,-3.359 2.957,-4.115 4.14,-4.115 1.536,0 1.673,1.253 1.451,2.293l-1.824 8.562 2.081 0 1.608 -7.543c0.353,-1.656 1.863,-3.312 3.614,-3.312 1.774,0 2.047,1.159 1.683,2.861l-1.701 7.994 2.081 0 1.824 -8.562c0.74,-3.475 -1.62,-4.162 -2.946,-4.162 -1.915,0 -2.924,0.851 -4.211,2.01 -0.214,-0.661 -0.636,-2.01 -2.858,-2.01 -2.225,0 -3.595,1.443 -4.185,2.106l-0.049 0 0.373 -1.751 -1.963 0 -2.634 12.369zm-10.387 -6.196l0 0c0.353,-1.656 1.622,-4.731 4.602,-4.731 2.981,0 2.94,3.075 2.588,4.731 -0.354,1.655 -1.623,4.729 -4.603,4.729 -2.979,0 -2.939,-3.074 -2.587,-4.729zm-2.152 0l0 0c-0.68,3.192 0.407,6.526 4.356,6.526 3.95,0 6.456,-3.334 7.137,-6.526 0.681,-3.193 -0.407,-6.528 -4.355,-6.528 -3.951,0 -6.457,3.335 -7.138,6.528zm-0.376 -4.446l0 0 0.367 -1.727 -1.987 0 0.735 -3.452 -2.081 0 -0.736 3.452 -1.679 0 -0.367 1.727 1.678 0 -1.736 8.159c-0.319,1.489 -0.115,2.647 1.943,2.647 0.211,0 0.824,-0.094 1.594,-0.164l0.348 -1.632 -0.734 0c-0.424,0 -1.252,0 -1.046,-0.969l1.713 -8.041 1.988 0zm-17.361 3.453l0 0c0.382,-1.798 1.932,-3.311 3.874,-3.311l0.781 0 0.457 -2.153c-0.156,-0.047 -0.269,-0.071 -0.529,-0.071 -1.561,0 -2.855,0.97 -3.989,2.413l-0.049 0 0.439 -2.058 -1.963 0 -2.634 12.369 2.08 0 1.533 -7.189zm-13.887 0.022l0 0c0.407,-1.914 2.298,-3.688 4.214,-3.688 2.531,0 2.956,1.774 2.667,3.688l-6.881 0zm6.086 3.289l0 0c-0.268,0.922 -1.748,2.435 -3.712,2.435 -2.387,0 -3.277,-1.489 -2.727,-4.068l9.034 0c0.932,-4.375 -0.215,-7.213 -3.786,-7.213 -4.09,0 -6.585,3.052 -7.401,6.883 -0.76,3.57 0.737,6.196 4.214,6.196 1.987,0 2.892,-0.473 3.539,-0.852 1.784,-1.04 2.724,-2.789 2.92,-3.381l-2.081 0zm-9.011 -6.764l0 0 0.367 -1.727 -1.986 0 0.734 -3.452 -2.08 0 -0.736 3.452 -1.679 0 -0.368 1.727 1.679 0 -1.737 8.159c-0.318,1.489 -0.115,2.647 1.942,2.647 0.213,0 0.824,-0.094 1.597,-0.164l0.346 -1.632 -0.732 0c-0.426,0 -1.254,0 -1.047,-0.969l1.713 -8.041 1.987 0zm-6.576 0l0 0 0.369 -1.727 -1.988 0 0.736 -3.452 -2.082 0 -0.735 3.452 -1.679 0 -0.367 1.727 1.679 0 -1.738 8.159c-0.317,1.489 -0.114,2.647 1.943,2.647 0.213,0 0.824,-0.094 1.595,-0.164l0.348 -1.632 -0.733 0c-0.425,0 -1.253,0 -1.046,-0.969l1.712 -8.041 1.986 0zm-16.798 3.475l0 0c0.408,-1.914 2.3,-3.688 4.214,-3.688 2.532,0 2.958,1.774 2.668,3.688l-6.882 0zm6.087 3.289l0 0c-0.268,0.922 -1.749,2.435 -3.711,2.435 -2.389,0 -3.277,-1.489 -2.728,-4.068l9.034 0c0.931,-4.375 -0.214,-7.213 -3.785,-7.213 -4.092,0 -6.586,3.052 -7.401,6.883 -0.762,3.57 0.738,6.196 4.213,6.196 1.986,0 2.892,-0.473 3.54,-0.852 1.783,-1.04 2.723,-2.789 2.919,-3.381l-2.081 0zm-12.532 -2.342l0 0c-0.58,2.719 -2.081,4.777 -4.352,4.777 -1.325,0 -3.195,-0.875 -2.494,-4.162 0.427,-2.011 1.448,-5.25 4.452,-5.25 3.217,0 2.733,3.051 2.394,4.635zm-8.064 6.22l0 0 0.327 -1.537 0.047 0c0.28,0.686 0.898,1.892 3.003,1.892 4.209,0 6.279,-3.951 6.91,-6.907 0.741,-3.475 -0.553,-6.172 -3.841,-6.172 -1.448,0.024 -2.803,0.615 -3.979,1.916l-0.047 0 1.314 -6.173 -2.08 0 -3.618 16.981 1.964 0zm-13.065 -4.281l0 0c-0.353,1.656 -2.511,2.908 -4.451,2.908 -1.561,0 -2.075,-0.803 -1.788,-2.15 0.332,-1.562 2.029,-1.87 3.076,-2.011 2.649,-0.332 3.209,-0.521 3.595,-0.78l-0.432 2.033zm-4.777 -4.327l0 0c0.342,-0.946 0.981,-2.389 3.346,-2.389 1.963,0 2.758,0.71 2.48,2.01 -0.262,1.229 -0.893,1.42 -1.399,1.465l-3.52 0.427c-3.544,0.425 -4.365,2.838 -4.588,3.878 -0.452,2.129 0.848,3.572 3.119,3.572 2.413,0 3.908,-1.137 4.897,-2.011 -0.129,0.947 -0.048,1.893 1.798,1.893 0.473,0 0.809,-0.143 1.185,-0.237l0.322 -1.513c-0.246,0.046 -0.516,0.094 -0.707,0.094 -0.424,0 -0.64,-0.213 -0.529,-0.734l1.516 -7.118c0.677,-3.168 -2.858,-3.453 -3.853,-3.453 -3.05,0 -5.26,1.16 -5.984,4.116l1.917 0zm-10.505 -3.761l0 0 -1.962 0 -0.373 1.751 -0.048 0c-0.345,-0.71 -0.994,-2.106 -3.24,-2.106 -3.287,0 -5.73,2.697 -6.47,6.172 -0.629,2.956 -0.241,6.907 3.968,6.907 1.656,0 2.91,-0.782 3.641,-1.656l0.019 -0.094 0.048 0 -0.111 0.52c-0.313,1.466 -0.856,4.351 -4.452,4.351 -0.497,0 -2.411,0 -2.372,-1.963l-2.082 0c-0.297,3.287 2.48,3.69 3.945,3.69 5.724,0 6.693,-4.447 7.072,-6.221l2.417 -11.351zm-10.013 6.149l0 0c0.339,-1.584 1.153,-4.635 4.37,-4.635 3.004,0 2.645,3.239 2.217,5.25 -0.701,3.287 -2.945,4.162 -4.27,4.162 -2.269,0 -2.895,-2.058 -2.317,-4.777zm-4.165 -2.199l0 0c0.751,-3.523 -1.497,-4.305 -3.412,-4.305 -2.129,0 -3.594,1.443 -4.185,2.106l-0.047 0 0.373 -1.751 -1.964 0 -2.633 12.369 2.08 0 1.436 -6.74c0.715,-3.359 2.957,-4.115 4.14,-4.115 2.034,0 2.417,1.088 1.958,3.239l-1.622 7.616 2.083 0 1.793 -8.419zm-11.877 -6.197l0 0 0.504 -2.365 -2.082 0 -0.504 2.365 2.082 0zm-0.478 2.247l0 0 -2.081 0 -2.635 12.369 2.08 0 2.636 -12.369zm-9.097 5.18l0 0c0.383,-1.798 1.936,-3.311 3.874,-3.311l0.781 0 0.458 -2.153c-0.155,-0.047 -0.269,-0.071 -0.528,-0.071 -1.561,0 -2.856,0.97 -3.991,2.413l-0.048 0 0.439 -2.058 -1.963 0 -2.635 12.369 2.081 0 1.532 -7.189zm-13.887 0.022l0 0c0.409,-1.914 2.299,-3.688 4.215,-3.688 2.531,0 2.957,1.774 2.668,3.688l-6.883 0zm6.087 3.289l0 0c-0.268,0.922 -1.748,2.435 -3.712,2.435 -2.387,0 -3.277,-1.489 -2.728,-4.068l9.034 0c0.932,-4.375 -0.213,-7.213 -3.785,-7.213 -4.091,0 -6.585,3.052 -7.401,6.883 -0.76,3.57 0.737,6.196 4.214,6.196 1.986,0 2.891,-0.473 3.539,-0.852 1.784,-1.04 2.724,-2.789 2.92,-3.381l-2.081 0zm-19.236 -3.289l0 0c0.408,-1.914 2.3,-3.688 4.214,-3.688 2.532,0 2.958,1.774 2.668,3.688l-6.882 0zm6.086 3.289l0 0c-0.267,0.922 -1.747,2.435 -3.71,2.435 -2.389,0 -3.277,-1.489 -2.728,-4.068l9.033 0c0.932,-4.375 -0.214,-7.213 -3.783,-7.213 -4.093,0 -6.587,3.052 -7.404,6.883 -0.76,3.57 0.739,6.196 4.215,6.196 1.986,0 2.892,-0.473 3.54,-0.852 1.782,-1.04 2.722,-2.789 2.92,-3.381l-2.083 0zm-10.525 -4.541l0 0c0.751,-3.523 -1.496,-4.305 -3.412,-4.305 -2.128,0 -3.594,1.443 -4.184,2.106l-0.047 0 0.373 -1.751 -1.964 0 -2.633 12.369 2.08 0 1.436 -6.74c0.714,-3.359 2.957,-4.115 4.14,-4.115 2.034,0 2.416,1.088 1.957,3.239l-1.621 7.616 2.082 0 1.793 -8.419zm-11.876 -6.197l0 0 0.504 -2.365 -2.082 0 -0.503 2.365 2.081 0zm-0.479 2.247l0 0 -2.08 0 -2.636 12.369 2.082 0 2.634 -12.369zm-5.014 0l0 0 -1.963 0 -0.373 1.751 -0.046 0c-0.346,-0.71 -0.995,-2.106 -3.242,-2.106 -3.287,0 -5.729,2.697 -6.469,6.172 -0.63,2.956 -0.241,6.907 3.968,6.907 1.655,0 2.909,-0.782 3.64,-1.656l0.02 -0.094 0.047 0 -0.11 0.52c-0.313,1.466 -0.857,4.351 -4.452,4.351 -0.497,0 -2.411,0 -2.372,-1.963l-2.08 0c-0.298,3.287 2.478,3.69 3.943,3.69 5.724,0 6.694,-4.447 7.072,-6.221l2.417 -11.351zm-10.011 6.149l0 0c0.336,-1.584 1.152,-4.635 4.368,-4.635 3.004,0 2.645,3.239 2.216,5.25 -0.701,3.287 -2.944,4.162 -4.267,4.162 -2.271,0 -2.898,-2.058 -2.317,-4.777zm-4.167 -2.199l0 0c0.75,-3.523 -1.497,-4.305 -3.413,-4.305 -2.128,0 -3.593,1.443 -4.183,2.106l-0.048 0 0.373 -1.751 -1.963 0 -2.635 12.369 2.081 0 1.436 -6.74c0.715,-3.359 2.958,-4.115 4.14,-4.115 2.033,0 2.417,1.088 1.959,3.239l-1.623 7.616 2.082 0 1.794 -8.419zm-14.179 6.385l0 0 -10.239 0 1.207 -5.676 9.295 0 0.434 -2.035 -9.295 0 1.108 -5.202 10.074 0 0.434 -2.034 -12.368 0 -3.617 16.981 12.534 0 0.433 -2.034z"/>
  </g>
 </g>
</svg>
